<mxfile host="app.diagrams.net" modified="2021-08-03T14:10:15.177Z" agent="5.0 (Windows NT 10.0; Win64; x64) AppleWebKit/537.36 (KHTML, like Gecko) Chrome/87.0.4280.88 Safari/537.36" etag="naOYvh5nxWb0zv5L5xGx" version="14.9.2" type="github">
  <diagram id="MY_xWshRzZBhz6SQVfgH" name="Page-1">
    <mxGraphModel dx="1038" dy="524" grid="1" gridSize="10" guides="1" tooltips="1" connect="1" arrows="1" fold="1" page="1" pageScale="1" pageWidth="827" pageHeight="1169" math="0" shadow="0">
      <root>
        <mxCell id="0" />
        <mxCell id="1" parent="0" />
        <mxCell id="z59ZclJl0l8mDTq-4NqH-7" style="edgeStyle=orthogonalEdgeStyle;rounded=0;orthogonalLoop=1;jettySize=auto;html=1;entryX=0;entryY=0.5;entryDx=0;entryDy=0;fontSize=16;" edge="1" parent="1" source="z59ZclJl0l8mDTq-4NqH-1" target="z59ZclJl0l8mDTq-4NqH-6">
          <mxGeometry relative="1" as="geometry" />
        </mxCell>
        <mxCell id="z59ZclJl0l8mDTq-4NqH-1" value="Bookstore" style="swimlane;fontStyle=1;align=center;verticalAlign=top;childLayout=stackLayout;horizontal=1;startSize=26;horizontalStack=0;resizeParent=1;resizeParentMax=0;resizeLast=0;collapsible=1;marginBottom=0;fontSize=14;" vertex="1" parent="1">
          <mxGeometry x="40" y="200" width="190" height="60" as="geometry" />
        </mxCell>
        <mxCell id="z59ZclJl0l8mDTq-4NqH-3" value="" style="line;strokeWidth=1;fillColor=none;align=left;verticalAlign=middle;spacingTop=-1;spacingLeft=3;spacingRight=3;rotatable=0;labelPosition=right;points=[];portConstraint=eastwest;" vertex="1" parent="z59ZclJl0l8mDTq-4NqH-1">
          <mxGeometry y="26" width="190" height="34" as="geometry" />
        </mxCell>
        <mxCell id="z59ZclJl0l8mDTq-4NqH-6" value="&lt;p style=&quot;margin: 4px 0px 0px ; text-align: center ; font-size: 16px&quot;&gt;&lt;i style=&quot;font-size: 16px&quot;&gt;&amp;lt;&amp;lt;Interface&amp;gt;&amp;gt;&lt;/i&gt;&lt;br style=&quot;font-size: 16px&quot;&gt;&lt;b&gt;IBook&lt;/b&gt;&lt;/p&gt;&lt;hr style=&quot;font-size: 16px&quot;&gt;&lt;p style=&quot;margin: 0px 0px 0px 4px ; font-size: 16px&quot;&gt;&lt;br&gt;&lt;/p&gt;&lt;hr style=&quot;font-size: 16px&quot;&gt;&lt;p style=&quot;margin: 0px 0px 0px 4px ; font-size: 16px&quot;&gt;+getName()：String&lt;/p&gt;&lt;p style=&quot;margin: 0px 0px 0px 4px ; font-size: 16px&quot;&gt;+getPrice()：double&lt;/p&gt;&lt;p style=&quot;margin: 0px 0px 0px 4px ; font-size: 16px&quot;&gt;+getAuthor()：String&lt;/p&gt;&lt;p style=&quot;margin: 0px 0px 0px 4px ; font-size: 16px&quot;&gt;&lt;br&gt;&lt;/p&gt;" style="verticalAlign=top;align=left;overflow=fill;fontSize=16;fontFamily=Helvetica;html=1;" vertex="1" parent="1">
          <mxGeometry x="390" y="80" width="190" height="190" as="geometry" />
        </mxCell>
        <mxCell id="z59ZclJl0l8mDTq-4NqH-13" value="NoveIBook" style="swimlane;fontStyle=1;align=center;verticalAlign=top;childLayout=stackLayout;horizontal=1;startSize=26;horizontalStack=0;resizeParent=1;resizeParentMax=0;resizeLast=0;collapsible=1;marginBottom=0;fontSize=16;" vertex="1" parent="1">
          <mxGeometry x="405" y="360" width="160" height="120" as="geometry" />
        </mxCell>
        <mxCell id="z59ZclJl0l8mDTq-4NqH-14" value="-name:String&#xa;-price：double&#xa;-author:String" style="text;strokeColor=none;fillColor=none;align=left;verticalAlign=top;spacingLeft=4;spacingRight=4;overflow=hidden;rotatable=0;points=[[0,0.5],[1,0.5]];portConstraint=eastwest;fontSize=14;" vertex="1" parent="z59ZclJl0l8mDTq-4NqH-13">
          <mxGeometry y="26" width="160" height="54" as="geometry" />
        </mxCell>
        <mxCell id="z59ZclJl0l8mDTq-4NqH-15" value="" style="line;strokeWidth=1;fillColor=none;align=left;verticalAlign=middle;spacingTop=-1;spacingLeft=3;spacingRight=3;rotatable=0;labelPosition=right;points=[];portConstraint=eastwest;" vertex="1" parent="z59ZclJl0l8mDTq-4NqH-13">
          <mxGeometry y="80" width="160" height="40" as="geometry" />
        </mxCell>
        <mxCell id="z59ZclJl0l8mDTq-4NqH-21" value="" style="endArrow=block;dashed=1;endFill=0;endSize=12;html=1;fontSize=16;" edge="1" parent="1" source="z59ZclJl0l8mDTq-4NqH-13" target="z59ZclJl0l8mDTq-4NqH-6">
          <mxGeometry width="160" relative="1" as="geometry">
            <mxPoint x="490" y="310" as="sourcePoint" />
            <mxPoint x="650" y="310" as="targetPoint" />
          </mxGeometry>
        </mxCell>
      </root>
    </mxGraphModel>
  </diagram>
</mxfile>
